<?xml version="1.0" encoding="UTF-8" standalone="no"?>
<svg
   xmlns:dc="http://purl.org/dc/elements/1.1/"
   xmlns:cc="http://creativecommons.org/ns#"
   xmlns:rdf="http://www.w3.org/1999/02/22-rdf-syntax-ns#"
   xmlns:svg="http://www.w3.org/2000/svg"
   xmlns="http://www.w3.org/2000/svg"
   id="svg8"
   version="1.1"
   viewBox="0 0 127.00046 33.866659"
   height="127.99997"
   width="480.00171">
  <defs
     id="defs2" />
  <metadata
     id="metadata5">
    <rdf:RDF>
      <cc:Work
         rdf:about="">
        <dc:format>image/svg+xml</dc:format>
        <dc:type
           rdf:resource="http://purl.org/dc/dcmitype/StillImage" />
        <dc:title></dc:title>
      </cc:Work>
    </rdf:RDF>
  </metadata>
  <path
     id="path1132"
     style="fill:#ffffff;fill-opacity:1;stroke-width:0.325232"
     d="M 16.854876,3.9498955e-5 A 16.933427,16.937185 0 0 0 0,16.937225 16.933427,16.937185 0 0 0 16.434226,33.866661 V 31.221776 19.582628 a 3.2522615,3.2342882 0 0 0 0,-0.03102 v -0.127155 h -0.004 a 3.2522615,3.2342882 0 0 0 -3.2484,-3.07648 3.2522615,3.2342882 0 0 0 -3.25253,3.234647 3.2522615,3.2342882 0 0 0 3.07786,3.229477 c 4e-4,-0.232456 -8.6e-4,-0.413402 5.2e-4,-0.64972 0.005,-0.858978 0.0176,-1.710876 0.0475,-2.318213 0,0 -0.008,-0.137925 0.0372,-0.132323 0.10361,0.01286 0.18901,0.05272 0.25891,0.115266 0.0699,0.06254 0.12423,0.147959 0.16537,0.250685 0.0823,0.205454 0.11204,0.481597 0.10904,0.790829 -0.014,0.612061 -0.006,1.270219 0,1.917634 a 3.2522615,3.2342882 0 0 0 0.005,-5.19e-4 v 8.057674 a 14.290098,14.29327 0 0 1 -0.0982,-0.02326 14.290098,14.29327 0 0 1 -0.15813,-0.04032 14.290098,14.29327 0 0 1 -0.15814,-0.04135 14.290098,14.29327 0 0 1 -0.15813,-0.04342 14.290098,14.29327 0 0 1 -0.15658,-0.04548 14.290098,14.29327 0 0 1 -0.15658,-0.04704 14.290098,14.29327 0 0 1 -0.15658,-0.04858 14.290098,14.29327 0 0 1 -0.15503,-0.05065 14.290098,14.29327 0 0 1 -0.15503,-0.0522 14.290098,14.29327 0 0 1 -0.15451,-0.05427 14.290098,14.29327 0 0 1 -0.15348,-0.05582 14.290098,14.29327 0 0 1 -0.15245,-0.05789 14.290098,14.29327 0 0 1 -0.15244,-0.05944 14.290098,14.29327 0 0 1 -0.15194,-0.06099 14.290098,14.29327 0 0 1 -0.15141,-0.06305 14.290098,14.29327 0 0 1 -0.14935,-0.06461 14.290098,14.29327 0 0 1 -0.14986,-0.06616 14.290098,14.29327 0 0 1 -0.14831,-0.06822 14.290098,14.29327 0 0 1 -0.14831,-0.06977 14.290098,14.29327 0 0 1 -0.14676,-0.07133 14.290098,14.29327 0 0 1 -0.14625,-0.0734 14.290098,14.29327 0 0 1 -0.14521,-0.07443 14.290098,14.29327 0 0 1 -0.14469,-0.0765 14.290098,14.29327 0 0 1 -0.14418,-0.07805 14.290098,14.29327 0 0 1 -0.14211,-0.0796 14.290098,14.29327 0 0 1 -0.14212,-0.08167 14.290098,14.29327 0 0 1 -0.14108,-0.0827 14.290098,14.29327 0 0 1 -0.14004,-0.08477 14.290098,14.29327 0 0 1 -0.13901,-0.08632 14.290098,14.29327 0 0 1 -0.13746,-0.08735 14.290098,14.29327 0 0 1 -0.13694,-0.08942 14.290098,14.29327 0 0 1 -0.13591,-0.09097 14.290098,14.29327 0 0 1 -0.13539,-0.09252 14.290098,14.29327 0 0 1 -0.13333,-0.09407 14.290098,14.29327 0 0 1 -0.13332,-0.0951 A 14.290098,14.29327 0 0 1 8.391176,28.39552 14.290098,14.29327 0 0 1 8.260436,28.2968 14.290098,14.29327 0 0 1 8.130722,28.19705 14.290098,14.29327 0 0 1 8.003081,28.095222 14.290098,14.29327 0 0 1 7.87544,27.992365 14.290098,14.29327 0 0 1 7.750382,27.887954 14.290098,14.29327 0 0 1 7.624807,27.782509 14.290098,14.29327 0 0 1 7.501299,27.674998 14.290098,14.29327 0 0 1 7.37986,27.566454 14.290098,14.29327 0 0 1 7.258937,27.456358 14.290098,14.29327 0 0 1 7.139045,27.344712 14.290098,14.29327 0 0 1 7.020707,27.232029 14.290098,14.29327 0 0 1 6.902885,27.118318 14.290098,14.29327 0 0 1 6.787644,27.002536 14.290098,14.29327 0 0 1 6.672924,26.885719 14.290098,14.29327 0 0 1 6.560266,26.767872 14.290098,14.29327 0 0 1 6.448645,26.648472 14.290098,14.29327 0 0 1 6.337541,26.52752 14.290098,14.29327 0 0 1 6.229019,26.406054 14.290098,14.29327 0 0 1 6.121531,26.282518 14.290098,14.29327 0 0 1 6.01456,26.158466 14.290098,14.29327 0 0 1 5.910173,26.032864 14.290098,14.29327 0 0 1 5.807337,25.906229 14.290098,14.29327 0 0 1 5.705016,25.778041 a 14.290098,14.29327 0 0 1 -0.100769,-0.12922 14.290098,14.29327 0 0 1 -0.0987,-0.129736 14.290098,14.29327 0 0 1 -0.09767,-0.131806 14.290098,14.29327 0 0 1 -0.0956,-0.132322 14.290098,14.29327 0 0 1 -0.09457,-0.133356 14.290098,14.29327 0 0 1 -0.09302,-0.134904 14.290098,14.29327 0 0 1 -0.09043,-0.135424 14.290098,14.29327 0 0 1 -0.08992,-0.136975 14.290098,14.29327 0 0 1 -0.08888,-0.13749 14.290098,14.29327 0 0 1 -0.0863,-0.138524 14.290098,14.29327 0 0 1 -0.08526,-0.140074 14.290098,14.29327 0 0 1 -0.0832,-0.140592 14.290098,14.29327 0 0 1 -0.08113,-0.141627 14.290098,14.29327 0 0 1 -0.08061,-0.142658 14.290098,14.29327 0 0 1 -0.07855,-0.143177 14.290098,14.29327 0 0 1 -0.07648,-0.14421 14.290098,14.29327 0 0 1 -0.07545,-0.145244 14.290098,14.29327 0 0 1 -0.07338,-0.146277 14.290098,14.29327 0 0 1 -0.07183,-0.146795 14.290098,14.29327 0 0 1 -0.07028,-0.147828 14.290098,14.29327 0 0 1 -0.06873,-0.148345 14.290098,14.29327 0 0 1 -0.06666,-0.149378 14.290098,14.29327 0 0 1 -0.06511,-0.149898 14.290098,14.29327 0 0 1 -0.06356,-0.150928 14.290098,14.29327 0 0 1 -0.06149,-0.151448 14.290098,14.29327 0 0 1 -0.05994,-0.151963 14.290098,14.29327 0 0 1 -0.05788,-0.152995 14.290098,14.29327 0 0 1 -0.05633,-0.153515 14.290098,14.29327 0 0 1 -0.05478,-0.154031 14.290098,14.29327 0 0 1 -0.05323,-0.155065 14.290098,14.29327 0 0 1 -0.05064,-0.155065 14.290098,14.29327 0 0 1 -0.04961,-0.156098 14.290098,14.29327 0 0 1 -0.04754,-0.156616 14.290098,14.29327 0 0 1 -0.04547,-0.156614 14.290098,14.29327 0 0 1 -0.04393,-0.15765 14.290098,14.29327 0 0 1 -0.04237,-0.158164 14.290098,14.29327 0 0 1 -0.04031,-0.158683 14.290098,14.29327 0 0 1 -0.03876,-0.158683 14.290098,14.29327 0 0 1 -0.03669,-0.159199 14.290098,14.29327 0 0 1 -0.03462,-0.159718 14.290098,14.29327 0 0 1 -0.03307,-0.160233 14.290098,14.29327 0 0 1 -0.031,-0.16075 14.290098,14.29327 0 0 1 -0.02946,-0.160751 14.290098,14.29327 0 0 1 -0.02739,-0.161268 14.290098,14.29327 0 0 1 -0.02584,-0.161783 14.290098,14.29327 0 0 1 -0.02377,-0.161782 14.290098,14.29327 0 0 1 -0.02222,-0.161785 14.290098,14.29327 0 0 1 -0.02015,-0.162301 14.290098,14.29327 0 0 1 -0.01809,-0.162819 14.290098,14.29327 0 0 1 -0.01654,-0.162301 14.290098,14.29327 0 0 1 -0.01447,-0.163336 14.290098,14.29327 0 0 1 -0.0124,-0.162816 14.290098,14.29327 0 0 1 -0.01085,-0.163336 14.290098,14.29327 0 0 1 -0.0093,-0.163332 14.290098,14.29327 0 0 1 -0.0067,-0.163335 14.290098,14.29327 0 0 1 -0.0052,-0.163336 14.290098,14.29327 0 0 1 -0.0041,-0.163335 14.290098,14.29327 0 0 1 -0.0021,-0.163851 14.290098,14.29327 0 0 1 0,-0.046 14.290098,14.29327 0 0 1 10e-4,-0.163333 14.290098,14.29327 0 0 1 0.0031,-0.163851 14.290098,14.29327 0 0 1 0.0052,-0.163334 14.290098,14.29327 0 0 1 0.0067,-0.163336 14.290098,14.29327 0 0 1 0.0083,-0.163335 14.290098,14.29327 0 0 1 0.01033,-0.163333 14.290098,14.29327 0 0 1 0.0124,-0.162819 14.290098,14.29327 0 0 1 0.01395,-0.163335 14.290098,14.29327 0 0 1 0.01602,-0.162818 14.290098,14.29327 0 0 1 0.01757,-0.162301 14.290098,14.29327 0 0 1 0.01964,-0.1623 14.290098,14.29327 0 0 1 0.02119,-0.162301 14.290098,14.29327 0 0 1 0.02377,-0.161785 14.290098,14.29327 0 0 1 0.02481,-0.161782 14.290098,14.29327 0 0 1 0.02687,-0.161269 14.290098,14.29327 0 0 1 0.02894,-0.16075 14.290098,14.29327 0 0 1 0.03101,-0.160751 14.290098,14.29327 0 0 1 0.03256,-0.160233 14.290098,14.29327 0 0 1 0.03411,-0.159716 14.290098,14.29327 0 0 1 0.03617,-0.159717 14.290098,14.29327 0 0 1 0.03824,-0.159199 14.290098,14.29327 0 0 1 0.03979,-0.158684 14.290098,14.29327 0 0 1 0.04134,-0.158166 14.290098,14.29327 0 0 1 0.04341,-0.157648 14.290098,14.29327 0 0 1 0.04547,-0.157132 14.290098,14.29327 0 0 1 0.04703,-0.156615 14.290098,14.29327 0 0 1 0.04857,-0.156098 14.290098,14.29327 0 0 1 0.05064,-0.155581 14.290098,14.29327 0 0 1 0.05271,-0.15455 14.290098,14.29327 0 0 1 0.05374,-0.154547 14.290098,14.29327 0 0 1 0.05633,-0.153514 14.290098,14.29327 0 0 1 0.05736,-0.152995 14.290098,14.29327 0 0 1 0.05943,-0.152483 14.290098,14.29327 0 0 1 0.06098,-0.151444 14.290098,14.29327 0 0 1 0.06304,-0.15093 14.290098,14.29327 0 0 1 0.0646,-0.150412 14.290098,14.29327 0 0 1 0.06666,-0.149382 14.290098,14.29327 0 0 1 0.0677,-0.148862 14.290098,14.29327 0 0 1 0.06976,-0.147826 14.290098,14.29327 0 0 1 0.07131,-0.147311 14.290098,14.29327 0 0 1 0.07338,-0.146276 14.290098,14.29327 0 0 1 0.07441,-0.145246 14.290098,14.29327 0 0 1 0.07648,-0.144728 14.290098,14.29327 0 0 1 0.07803,-0.143693 14.290098,14.29327 0 0 1 0.0801,-0.1426575 14.290098,14.29327 0 0 1 0.08113,-0.142143 14.290098,14.29327 0 0 1 0.08268,-0.141108 14.290098,14.29327 0 0 1 0.08475,-0.13956 14.290098,14.29327 0 0 1 0.0863,-0.139041 14.290098,14.29327 0 0 1 0.08785,-0.138007 14.290098,14.29327 0 0 1 0.08888,-0.136974 14.290098,14.29327 0 0 1 0.09095,-0.135939 14.290098,14.29327 0 0 1 0.0925,-0.134908 14.290098,14.29327 0 0 1 0.09405,-0.133872 14.290098,14.29327 0 0 1 0.0956,-0.132838 14.290098,14.29327 0 0 1 0.09663,-0.131806 14.290098,14.29327 0 0 1 0.0987,-0.130252 14.290098,14.29327 0 0 1 0.09973,-0.129738 14.290098,14.29327 0 0 1 0.101805,-0.128187 14.290098,14.29327 0 0 1 0.102835,-0.127153 14.290098,14.29327 0 0 1 0.104387,-0.125602 14.290098,14.29327 0 0 1 0.105937,-0.125087 14.290098,14.29327 0 0 1 0.106972,-0.123533 14.290098,14.29327 0 0 1 0.10852,-0.121984 14.290098,14.29327 0 0 1 0.110072,-0.12095 14.290098,14.29327 0 0 1 0.11162,-0.119919 14.290098,14.29327 0 0 1 0.112655,-0.118363 14.290098,14.29327 0 0 1 0.114208,-0.116817 14.290098,14.29327 0 0 1 0.115238,-0.116298 14.290098,14.29327 0 0 1 0.116789,-0.11423 14.290098,14.29327 0 0 1 0.117823,-0.113199 14.290098,14.29327 0 0 1 0.119373,-0.111646 14.290098,14.29327 0 0 1 0.120923,-0.110611 14.290098,14.29327 0 0 1 0.121958,-0.109064 14.290098,14.29327 0 0 1 0.122992,-0.107511 14.290098,14.29327 0 0 1 0.124024,-0.106476 14.290098,14.29327 0 0 1 0.125575,-0.104413 14.290098,14.29327 0 0 1 0.126606,-0.103375 14.290098,14.29327 0 0 1 0.12816,-0.101827 14.290098,14.29327 0 0 1 0.129197,-0.100792 14.290098,14.29327 0 0 1 0.13022,-0.09872 14.290098,14.29327 0 0 1 0.13126,-0.09769 14.290098,14.29327 0 0 1 0.13229,-0.09562 14.290098,14.29327 0 0 1 0.13332,-0.09459 14.290098,14.29327 0 0 1 0.13488,-0.09304 14.290098,14.29327 0 0 1 0.13539,-0.09097 14.290098,14.29327 0 0 1 0.13695,-0.08994 14.290098,14.29327 0 0 1 0.13745,-0.08839 14.290098,14.29327 0 0 1 0.13901,-0.08632 14.290098,14.29327 0 0 1 0.13953,-0.08528 14.290098,14.29327 0 0 1 0.14056,-0.08322 14.290098,14.29327 0 0 1 0.1416,-0.08167 14.290098,14.29327 0 0 1 0.14263,-0.08012 14.290098,14.29327 0 0 1 0.14315,-0.07857 14.290098,14.29327 0 0 1 0.14469,-0.07702 14.290098,14.29327 0 0 1 0.14521,-0.07547 14.290098,14.29327 0 0 1 0.14573,-0.0734 14.290098,14.29327 0 0 1 0.14676,-0.07185 14.290098,14.29327 0 0 1 0.14779,-0.0703 14.290098,14.29327 0 0 1 0.14831,-0.06874 14.290098,14.29327 0 0 1 0.14935,-0.06667 14.290098,14.29327 0 0 1 0.14986,-0.06512 14.290098,14.29327 0 0 1 0.15089,-0.06306 14.290098,14.29327 0 0 1 0.15143,-0.06202 14.290098,14.29327 0 0 1 0.15244,-0.05995 14.290098,14.29327 0 0 1 0.15245,-0.05789 14.290098,14.29327 0 0 1 0.15348,-0.05634 14.290098,14.29327 0 0 1 0.15399,-0.05479 14.290098,14.29327 0 0 1 0.15503,-0.05272 14.290098,14.29327 0 0 1 0.15503,-0.05117 14.290098,14.29327 0 0 1 0.15606,-0.04962 14.290098,14.29327 0 0 1 0.15659,-0.04755 14.290098,14.29327 0 0 1 0.15709,-0.04549 14.290098,14.29327 0 0 1 0.1571,-0.04393 14.290098,14.29327 0 0 1 0.15814,-0.04239 14.290098,14.29327 0 0 1 0.15864,-0.04032 14.290098,14.29327 0 0 1 0.15865,-0.03825 14.290098,14.29327 0 0 1 0.15968,-0.0367 14.290098,14.29327 0 0 1 0.15968,-0.03515 14.290098,14.29327 0 0 1 0.1602,-0.03308 14.290098,14.29327 0 0 1 0.16019,-0.03102 14.290098,14.29327 0 0 1 0.16072,-0.02946 14.290098,14.29327 0 0 1 0.16123,-0.0274 14.290098,14.29327 0 0 1 0.16174,-0.02585 14.290098,14.29327 0 0 1 0.16175,-0.02378 14.290098,14.29327 0 0 1 0.16175,-0.02222 14.290098,14.29327 0 0 1 0.16227,-0.02016 14.290098,14.29327 0 0 1 0.16279,-0.01808 14.290098,14.29327 0 0 1 0.16278,-0.01654 14.290098,14.29327 0 0 1 0.16278,-0.01447 14.290098,14.29327 0 0 1 0.16278,-0.0124 14.290098,14.29327 0 0 1 0.1633,-0.01085 14.290098,14.29327 0 0 1 0.16329,-0.0093 14.290098,14.29327 0 0 1 0.1633,-0.0067 14.290098,14.29327 0 0 1 0.1633,-0.0052 14.290098,14.29327 0 0 1 0.16381,-0.0036 14.290098,14.29327 0 0 1 0.16331,-0.0021 l -10e-4,5.19e-4 a 14.290098,14.29327 0 0 1 0.046,0 14.290098,14.29327 0 0 1 0.1633,0.001 14.290098,14.29327 0 0 1 0.16381,0.0031 14.290098,14.29327 0 0 1 0.1633,0.0047 14.290098,14.29327 0 0 1 0.16329,0.0062 14.290098,14.29327 0 0 1 0.1633,0.0088 14.290098,14.29327 0 0 1 0.1633,0.0098 14.290098,14.29327 0 0 1 0.1633,0.0124 14.290098,14.29327 0 0 1 0.16278,0.01395 14.290098,14.29327 0 0 1 0.16278,0.01602 14.290098,14.29327 0 0 1 0.16226,0.01757 14.290098,14.29327 0 0 1 0.16228,0.01965 14.290098,14.29327 0 0 1 0.16226,0.0217 14.290098,14.29327 0 0 1 0.16175,0.02325 14.290098,14.29327 0 0 1 0.16174,0.02481 14.290098,14.29327 0 0 1 0.16124,0.0274 14.290098,14.29327 0 0 1 0.16071,0.02843 14.290098,14.29327 0 0 1 0.16071,0.03102 14.290098,14.29327 0 0 1 0.1602,0.03257 14.290098,14.29327 0 0 1 0.1602,0.03412 14.290098,14.29327 0 0 1 0.15916,0.03618 14.290098,14.29327 0 0 1 0.15916,0.03825 14.290098,14.29327 0 0 1 0.15866,0.0398 14.290098,14.29327 0 0 1 0.15813,0.04135 14.290098,14.29327 0 0 1 0.15761,0.04342 14.290098,14.29327 0 0 1 0.1571,0.04548 14.290098,14.29327 0 0 1 0.15658,0.04703 14.290098,14.29327 0 0 1 0.15606,0.04859 14.290098,14.29327 0 0 1 0.15555,0.05065 14.290098,14.29327 0 0 1 0.15451,0.05272 14.290098,14.29327 0 0 1 0.15451,0.05427 14.290098,14.29327 0 0 1 0.15348,0.05582 14.290098,14.29327 0 0 1 0.15296,0.05737 14.290098,14.29327 0 0 1 0.15245,0.05944 14.290098,14.29327 0 0 1 0.15194,0.06151 14.290098,14.29327 0 0 1 0.15089,0.06254 14.290098,14.29327 0 0 1 0.14987,0.0646 14.290098,14.29327 0 0 1 0.14986,0.06667 14.290098,14.29327 0 0 1 0.14831,0.06771 14.290098,14.29327 0 0 1 0.14779,0.06977 14.290098,14.29327 0 0 1 0.14728,0.07133 14.290098,14.29327 0 0 1 0.14625,0.0734 14.290098,14.29327 0 0 1 0.14572,0.07443 14.290098,14.29327 0 0 1 0.14418,0.0765 14.290098,14.29327 0 0 1 0.14366,0.07805 14.290098,14.29327 0 0 1 0.14315,0.08012 14.290098,14.29327 0 0 1 0.1416,0.08115 14.290098,14.29327 0 0 1 0.14107,0.08322 14.290098,14.29327 0 0 1 0.14005,0.08425 14.290098,14.29327 0 0 1 0.13849,0.08632 14.290098,14.29327 0 0 1 0.13797,0.08787 14.290098,14.29327 0 0 1 0.13695,0.0889 14.290098,14.29327 0 0 1 0.13643,0.09097 14.290098,14.29327 0 0 1 0.13487,0.09252 14.290098,14.29327 0 0 1 0.13333,0.09407 14.290098,14.29327 0 0 1 0.1328,0.09562 14.290098,14.29327 0 0 1 0.13178,0.09666 14.290098,14.29327 0 0 1 0.13074,0.09872 14.290098,14.29327 0 0 1 0.12919,0.100273 14.290098,14.29327 0 0 1 0.12817,0.101308 14.290098,14.29327 0 0 1 0.12712,0.102862 14.290098,14.29327 0 0 1 0.12609,0.10441 14.290098,14.29327 0 0 1 0.12454,0.10596 14.290098,14.29327 0 0 1 0.12351,0.106994 14.290098,14.29327 0 0 1 0.12195,0.108546 14.290098,14.29327 0 0 1 0.12093,0.110096 14.290098,14.29327 0 0 1 0.11989,0.111646 14.290098,14.29327 0 0 1 0.11834,0.112679 14.290098,14.29327 0 0 1 0.1173,0.114231 14.290098,14.29327 0 0 1 0.11576,0.115266 14.290098,14.29327 0 0 1 0.1142,0.116816 14.290098,14.29327 0 0 1 0.11317,0.117848 14.290098,14.29327 0 0 1 0.11163,0.119399 14.290098,14.29327 0 0 1 0.11058,0.12095 14.290098,14.29327 0 0 1 0.10905,0.121985 14.290098,14.29327 0 0 1 0.10749,0.123018 14.290098,14.29327 0 0 1 0.10645,0.12405 14.290098,14.29327 0 0 1 0.1049,0.125603 14.290098,14.29327 0 0 1 0.10336,0.127154 14.290098,14.29327 0 0 1 0.1018,0.12767 14.290098,14.29327 0 0 1 0.10025,0.129221 14.290098,14.29327 0 0 1 0.0987,0.130253 14.290098,14.29327 0 0 1 0.0977,0.13129 14.290098,14.29327 0 0 1 0.0956,0.132322 14.290098,14.29327 0 0 1 0.0946,0.133353 14.290098,14.29327 0 0 1 0.093,0.134908 14.290098,14.29327 0 0 1 0.091,0.135423 14.290098,14.29327 0 0 1 0.0899,0.136973 14.290098,14.29327 0 0 1 0.0884,0.137491 14.290098,14.29327 0 0 1 0.0863,0.139042 14.290098,14.29327 0 0 1 0.0853,0.139557 14.290098,14.29327 0 0 1 0.0832,0.140592 14.290098,14.29327 0 0 1 0.0822,0.141626 14.290098,14.29327 0 0 1 0.0801,0.1426585 14.290098,14.29327 0 0 1 0.0791,0.143177 14.290098,14.29327 0 0 1 0.0765,0.144726 14.290098,14.29327 0 0 1 0.0755,0.145244 14.290098,14.29327 0 0 1 0.0734,0.145762 14.290098,14.29327 0 0 1 0.0718,0.146793 14.290098,14.29327 0 0 1 0.0703,0.147828 14.290098,14.29327 0 0 1 0.0687,0.148346 14.290098,14.29327 0 0 1 0.0667,0.149378 14.290098,14.29327 0 0 1 0.0651,0.149897 14.290098,14.29327 0 0 1 0.0636,0.150929 14.290098,14.29327 0 0 1 0.0615,0.151445 14.290098,14.29327 0 0 1 0.0599,0.152481 14.290098,14.29327 0 0 1 0.0579,0.15248 14.290098,14.29327 0 0 1 0.0568,0.153515 14.290098,14.29327 0 0 1 0.0543,0.154547 14.290098,14.29327 0 0 1 0.0532,0.154549 14.290098,14.29327 0 0 1 0.0512,0.155581 14.290098,14.29327 0 0 1 0.0491,0.155582 14.290098,14.29327 0 0 1 0.0476,0.156613 14.290098,14.29327 0 0 1 0.0455,0.157132 14.290098,14.29327 0 0 1 0.0444,0.157132 14.290098,14.29327 0 0 1 0.0419,0.158167 14.290098,14.29327 0 0 1 0.0403,0.158683 14.290098,14.29327 0 0 1 0.0388,0.158683 14.290098,14.29327 0 0 1 0.0367,0.159715 14.290098,14.29327 0 0 1 0.0346,0.159718 14.290098,14.29327 0 0 1 0.0331,0.160233 14.290098,14.29327 0 0 1 0.031,0.160234 14.290098,14.29327 0 0 1 0.0295,0.16075 14.290098,14.29327 0 0 1 0.0279,0.161265 14.290098,14.29327 0 0 1 0.0253,0.161785 14.290098,14.29327 0 0 1 0.0238,0.161784 14.290098,14.29327 0 0 1 0.0222,0.161785 14.290098,14.29327 0 0 1 0.0202,0.162301 14.290098,14.29327 0 0 1 0.0181,0.162816 14.290098,14.29327 0 0 1 0.0165,0.16282 14.290098,14.29327 0 0 1 0.0145,0.162817 14.290098,14.29327 0 0 1 0.0129,0.162819 14.290098,14.29327 0 0 1 0.0103,0.163332 14.290098,14.29327 0 0 1 0.009,0.163335 14.290098,14.29327 0 0 1 0.007,0.163335 14.290098,14.29327 0 0 1 0.005,0.163337 14.290098,14.29327 0 0 1 0.004,0.163851 14.290098,14.29327 0 0 1 0.002,0.163335 14.290098,14.29327 0 0 1 0,0.046 14.290098,14.29327 0 0 1 -0.001,0.163852 14.290098,14.29327 0 0 1 -0.003,0.163335 14.290098,14.29327 0 0 1 -0.005,0.163335 14.290098,14.29327 0 0 1 -0.007,0.163336 14.290098,14.29327 0 0 1 -0.008,0.163333 14.290098,14.29327 0 0 1 -0.0103,0.163335 14.290098,14.29327 0 0 1 -0.0124,0.163335 14.290098,14.29327 0 0 1 -0.014,0.162817 14.290098,14.29327 0 0 1 -0.016,0.16282 14.290098,14.29327 0 0 1 -0.0176,0.162301 14.290098,14.29327 0 0 1 -0.0196,0.1623 14.290098,14.29327 0 0 1 -0.0212,0.1623 14.290098,14.29327 0 0 1 -0.0233,0.161784 14.290098,14.29327 0 0 1 -0.0253,0.161785 14.290098,14.29327 0 0 1 -0.0269,0.161266 14.290098,14.29327 0 0 1 -0.0289,0.160753 14.290098,14.29327 0 0 1 -0.031,0.16075 14.290098,14.29327 0 0 1 -0.0326,0.160233 14.290098,14.29327 0 0 1 -0.0341,0.160232 14.290098,14.29327 0 0 1 -0.0362,0.159201 14.290098,14.29327 0 0 1 -0.0382,0.159198 14.290098,14.29327 0 0 1 -0.0398,0.158683 14.290098,14.29327 0 0 1 -0.0413,0.158165 14.290098,14.29327 0 0 1 -0.0434,0.157651 14.290098,14.29327 0 0 1 -0.0455,0.157131 14.290098,14.29327 0 0 1 -0.047,0.156617 14.290098,14.29327 0 0 1 -0.0486,0.156097 14.290098,14.29327 0 0 1 -0.0506,0.155581 14.290098,14.29327 0 0 1 -0.0527,0.155066 14.290098,14.29327 0 0 1 -0.0537,0.15403 14.290098,14.29327 0 0 1 -0.0563,0.153514 14.290098,14.29327 0 0 1 -0.0574,0.152996 14.290098,14.29327 0 0 1 -0.0594,0.15248 14.290098,14.29327 0 0 1 -0.061,0.151964 14.290098,14.29327 0 0 1 -0.063,0.150929 14.290098,14.29327 0 0 1 -0.0646,0.149896 14.290098,14.29327 0 0 1 -0.0661,0.149897 14.290098,14.29327 0 0 1 -0.0682,0.148343 14.290098,14.29327 0 0 1 -0.0698,0.148346 14.290098,14.29327 0 0 1 -0.0713,0.146795 14.290098,14.29327 0 0 1 -0.0734,0.146277 14.290098,14.29327 0 0 1 -0.0744,0.145761 14.290098,14.29327 0 0 1 -0.0765,0.144211 14.290098,14.29327 0 0 1 -0.078,0.143691 14.290098,14.29327 0 0 1 -0.0796,0.143177 14.290098,14.29327 0 0 1 -0.0816,0.141628 14.290098,14.29327 0 0 1 -0.0827,0.141107 14.290098,14.29327 0 0 1 -0.0847,0.140075 14.290098,14.29327 0 0 1 -0.0863,0.139042 14.290098,14.29327 0 0 1 -0.0873,0.138007 14.290098,14.29327 0 0 1 -0.0894,0.136974 14.290098,14.29327 0 0 1 -0.091,0.135938 14.290098,14.29327 0 0 1 -0.0925,0.134908 14.290098,14.29327 0 0 1 -0.0941,0.133873 14.290098,14.29327 0 0 1 -0.0956,0.132322 14.290098,14.29327 0 0 1 -0.0966,0.131803 14.290098,14.29327 0 0 1 -0.0987,0.130771 14.290098,14.29327 0 0 1 -0.0992,0.129222 14.290098,14.29327 0 0 1 -0.1018,0.128187 14.290098,14.29327 0 0 1 -0.10283,0.127152 14.290098,14.29327 0 0 1 -0.10439,0.126119 14.290098,14.29327 0 0 1 -0.10594,0.124568 14.290098,14.29327 0 0 1 -0.10697,0.123535 14.290098,14.29327 0 0 1 -0.10852,0.121985 14.290098,14.29327 0 0 1 -0.11008,0.12095 14.290098,14.29327 0 0 1 -0.11162,0.119917 14.290098,14.29327 0 0 1 -0.11265,0.118365 14.290098,14.29327 0 0 1 -0.11421,0.117333 14.290098,14.29327 0 0 1 -0.11524,0.11578 14.290098,14.29327 0 0 1 -0.11679,0.114232 14.290098,14.29327 0 0 1 -0.11782,0.113199 14.290098,14.29327 0 0 1 -0.11937,0.112161 14.290098,14.29327 0 0 1 -0.12092,0.110097 14.290098,14.29327 0 0 1 -0.12144,0.109062 14.290098,14.29327 0 0 1 -0.12351,0.107511 14.290098,14.29327 0 0 1 -0.12402,0.106477 14.290098,14.29327 0 0 1 -0.12558,0.104928 14.290098,14.29327 0 0 1 -0.1266,0.103376 14.290098,14.29327 0 0 1 -0.12816,0.101827 14.290098,14.29327 0 0 1 -0.1292,0.100273 14.290098,14.29327 0 0 1 -0.13023,0.09872 14.290098,14.29327 0 0 1 -0.13126,0.09769 14.290098,14.29327 0 0 1 -0.13229,0.09614 14.290098,14.29327 0 0 1 -0.13332,0.09407 14.290098,14.29327 0 0 1 -0.13488,0.09304 14.290098,14.29327 0 0 1 -0.13539,0.09149 14.290098,14.29327 0 0 1 -0.13694,0.08942 14.290098,14.29327 0 0 1 -0.13746,0.08839 14.290098,14.29327 0 0 1 -0.13901,0.08632 14.290098,14.29327 0 0 1 -0.13953,0.08529 14.290098,14.29327 0 0 1 -0.14056,0.08322 14.290098,14.29327 0 0 1 -0.14159,0.08219 14.290098,14.29327 0 0 1 -0.14264,0.08012 14.290098,14.29327 0 0 1 -0.14314,0.07857 14.290098,14.29327 0 0 1 -0.1447,0.0765 14.290098,14.29327 0 0 1 -0.14469,0.07547 14.290098,14.29327 0 0 1 -0.14624,0.0734 14.290098,14.29327 0 0 1 -0.14677,0.07237 14.290098,14.29327 0 0 1 -0.14779,0.06978 14.290098,14.29327 0 0 1 -0.14831,0.06874 14.290098,14.29327 0 0 1 -0.14935,0.06668 14.290098,14.29327 0 0 1 -0.14986,0.06512 14.290098,14.29327 0 0 1 -0.15089,0.06357 14.290098,14.29327 0 0 1 -0.15142,0.06151 14.290098,14.29327 0 0 1 -0.15193,0.05995 14.290098,14.29327 0 0 1 -0.15297,0.05789 14.290098,14.29327 0 0 1 -0.15348,0.05685 14.290098,14.29327 0 0 1 -0.15399,0.05427 14.290098,14.29327 0 0 1 -0.15503,0.05324 14.290098,14.29327 0 0 1 -0.15503,0.05117 14.290098,14.29327 0 0 1 -0.15606,0.0491 14.290098,14.29327 0 0 1 -0.15658,0.04755 14.290098,14.29327 0 0 1 -0.1571,0.046 14.290098,14.29327 0 0 1 -0.15709,0.04393 14.290098,14.29327 0 0 1 -0.15813,0.04187 14.290098,14.29327 0 0 1 -0.15866,0.04032 14.290098,14.29327 0 0 1 -0.0212,0.0052 V 16.634855 a 3.2522615,3.2342882 0 0 0 0.005,5.16e-4 c 0.007,-0.760935 0.0164,-1.532202 0,-2.250505 -0.003,-0.309234 0.0268,-0.585376 0.10905,-0.790828 0.0411,-0.102727 0.0955,-0.188147 0.16536,-0.250687 0.0699,-0.06254 0.15529,-0.102399 0.2589,-0.115267 0.0455,-0.0056 0.0372,0.132323 0.0372,0.132323 0.0299,0.607339 0.0424,1.459239 0.0475,2.318213 0.002,0.357393 9.3e-4,0.639795 0.001,0.982596 a 3.2522615,3.2342882 0 0 0 3.07736,-3.229479 3.2522615,3.2342882 0 0 0 -3.25202,-3.23413 3.2522615,3.2342882 0 0 0 -0.031,0 3.2522615,3.2342882 0 0 0 -3.22049,3.170553 h -10e-4 v 0.06358 17.78539 2.645919 A 16.933427,16.937185 0 0 0 33.866666,16.937231 16.933427,16.937185 0 0 0 16.933246,4.5498955e-5 a 16.933427,16.937185 0 0 0 -0.0785,0 z" />
  <g
     style="fill:#ffffff"
     transform="translate(0,-0.79374771)"
     id="g963">
    <g
       style="font-style:normal;font-weight:normal;font-size:13.5581px;line-height:1;font-family:sans-serif;fill:#ffffff;fill-opacity:1;stroke:none;stroke-width:0.338953"
       id="text1287"
       aria-label="Kākā Database ">
      <path
         id="path965"
         style="font-style:normal;font-variant:normal;font-weight:bold;font-stretch:normal;font-family:Sarabun;-inkscape-font-specification:'Sarabun Bold';fill:#ffffff;stroke-width:0.338953"
         d="m 43.753729,26.827183 -2.508248,-4.257244 -1.193113,1.477833 v 2.779411 h -1.952366 v -9.49067 h 1.952366 v 4.189453 l 3.145479,-4.189453 h 2.277761 l -2.955666,3.660687 3.403083,5.829983 z" />
      <path
         id="path967"
         style="font-style:normal;font-variant:normal;font-weight:bold;font-stretch:normal;font-family:Sarabun;-inkscape-font-specification:'Sarabun Bold';fill:#ffffff;stroke-width:0.338953"
         d="m 48.403522,26.962764 q -0.664347,0 -1.193113,-0.271162 -0.528766,-0.28472 -0.827044,-0.772812 -0.298278,-0.50165 -0.298278,-1.111764 0,-1.043974 0.827044,-1.599856 0.827044,-0.555882 2.359109,-0.555882 h 1.057532 v -0.28472 q 0,-0.542324 -0.325394,-0.827044 -0.311837,-0.298278 -0.894835,-0.298278 -0.610114,0 -1.165997,0.216929 -0.555882,0.21693 -0.908392,0.596557 l -0.759254,-1.0033 q 0.555882,-0.528766 1.315136,-0.827044 0.759253,-0.311836 1.572739,-0.311836 1.35581,0 2.128622,0.637231 0.772812,0.63723 0.772812,1.762553 v 3.091246 q 0,0.311837 0.04067,0.732138 0.05423,0.420301 0.122023,0.691463 h -1.532065 q -0.08135,-0.176256 -0.122023,-0.338953 -0.04068,-0.176255 -0.06779,-0.474533 h -0.02712 q -0.772812,0.949067 -2.074389,0.949067 z m 0.420301,-1.301578 q 0.650789,0 1.07109,-0.325394 0.433859,-0.338953 0.433859,-0.85416 v -0.677905 h -1.111764 q -0.691463,0 -1.07109,0.257603 -0.366069,0.257604 -0.366069,0.745696 0,0.406743 0.271162,0.637231 0.28472,0.216929 0.772812,0.216929 z m -1.92525,-7.714559 h 4.63687 v 1.125323 h -4.63687 z" />
      <path
         id="path969"
         style="font-style:normal;font-variant:normal;font-weight:bold;font-stretch:normal;font-family:Sarabun;-inkscape-font-specification:'Sarabun Bold';fill:#ffffff;stroke-width:0.338953"
         d="m 58.08803,26.827183 -2.006598,-3.159037 -0.813486,0.799927 v 2.35911 h -1.735437 v -10.06011 h 1.735437 v 5.626611 l 2.386225,-2.345551 h 2.128622 l -2.508249,2.454016 2.765853,4.325034 z" />
      <path
         id="path971"
         style="font-style:normal;font-variant:normal;font-weight:bold;font-stretch:normal;font-family:Sarabun;-inkscape-font-specification:'Sarabun Bold';fill:#ffffff;stroke-width:0.338953"
         d="m 62.279389,26.962764 q -0.664347,0 -1.193113,-0.271162 -0.528766,-0.28472 -0.827044,-0.772812 -0.298278,-0.50165 -0.298278,-1.111764 0,-1.043974 0.827044,-1.599856 0.827044,-0.555882 2.359109,-0.555882 h 1.057532 v -0.28472 q 0,-0.542324 -0.325395,-0.827044 -0.311836,-0.298278 -0.894834,-0.298278 -0.610115,0 -1.165997,0.216929 -0.555882,0.21693 -0.908392,0.596557 l -0.759254,-1.0033 q 0.555882,-0.528766 1.315136,-0.827044 0.759253,-0.311836 1.572739,-0.311836 1.35581,0 2.128622,0.637231 0.772812,0.63723 0.772812,1.762553 v 3.091246 q 0,0.311837 0.04067,0.732138 0.05423,0.420301 0.122023,0.691463 h -1.532065 q -0.08135,-0.176256 -0.122023,-0.338953 -0.04067,-0.176255 -0.06779,-0.474533 h -0.02712 q -0.772812,0.949067 -2.074389,0.949067 z m 0.420301,-1.301578 q 0.650789,0 1.07109,-0.325394 0.433859,-0.338953 0.433859,-0.85416 v -0.677905 h -1.111764 q -0.691463,0 -1.07109,0.257603 -0.366069,0.257604 -0.366069,0.745696 0,0.406743 0.271162,0.637231 0.28472,0.216929 0.772812,0.216929 z m -1.92525,-7.714559 h 4.63687 v 1.125323 h -4.63687 z" />
      <path
         id="path973"
         style="font-style:normal;font-variant:normal;font-weight:bold;font-stretch:normal;font-family:Sarabun;-inkscape-font-specification:'Sarabun Bold';fill:#ffffff;stroke-width:0.338953"
         d="m 70.803623,17.336513 h 3.389525 q 3.891174,0 3.891174,4.56908 0,1.762553 -0.433859,2.847201 -0.433859,1.071089 -1.369368,1.572739 -0.921951,0.50165 -2.454016,0.50165 h -3.023456 z m 3.226827,7.931488 q 0.772812,0 1.233788,-0.338952 0.460975,-0.338953 0.664346,-1.07109 0.21693,-0.732137 0.21693,-1.952366 0,-1.613414 -0.460975,-2.304877 -0.460976,-0.705022 -1.532066,-0.705022 h -1.396484 v 6.372307 z" />
      <path
         id="path975"
         style="font-style:normal;font-variant:normal;font-weight:bold;font-stretch:normal;font-family:Sarabun;-inkscape-font-specification:'Sarabun Bold';fill:#ffffff;stroke-width:0.338953"
         d="m 81.318985,26.962764 q -0.664347,0 -1.193113,-0.271162 -0.528765,-0.28472 -0.827044,-0.772812 -0.298278,-0.50165 -0.298278,-1.111764 0,-1.043974 0.827044,-1.599856 0.827044,-0.555882 2.35911,-0.555882 h 1.057531 v -0.28472 q 0,-0.542324 -0.325394,-0.827044 -0.311836,-0.298278 -0.894835,-0.298278 -0.610114,0 -1.165996,0.216929 -0.555882,0.21693 -0.908393,0.596557 l -0.759253,-1.0033 q 0.555882,-0.528766 1.315135,-0.827044 0.759254,-0.311836 1.57274,-0.311836 1.35581,0 2.128622,0.637231 0.772811,0.63723 0.772811,1.762553 v 3.091246 q 0,0.311837 0.04068,0.732138 0.05423,0.420301 0.122022,0.691463 h -1.532065 q -0.08135,-0.176256 -0.122023,-0.338953 -0.04067,-0.176255 -0.06779,-0.474533 h -0.02712 q -0.772812,0.949067 -2.07439,0.949067 z m 0.420301,-1.301578 q 0.650789,0 1.07109,-0.325394 0.433859,-0.338953 0.433859,-0.85416 v -0.677905 h -1.111764 q -0.691463,0 -1.07109,0.257603 -0.366068,0.257604 -0.366068,0.745696 0,0.406743 0.271162,0.637231 0.28472,0.216929 0.772811,0.216929 z" />
      <path
         id="path977"
         style="font-style:normal;font-variant:normal;font-weight:bold;font-stretch:normal;font-family:Sarabun;-inkscape-font-specification:'Sarabun Bold';fill:#ffffff;stroke-width:0.338953"
         d="m 89.376524,26.962764 q -1.043974,0 -1.626972,-0.56944 -0.582999,-0.569441 -0.582999,-1.599856 v -3.457316 h -1.233787 v -1.288019 h 1.233787 v -1.748995 l 1.681205,-0.488092 h 0.05423 v 2.237087 h 1.965925 v 1.288019 H 88.90199 v 3.199712 q 0,0.582998 0.271162,0.85416 0.271162,0.271162 0.827044,0.271162 0.528766,0 0.989742,-0.162697 l 0.08135,1.179555 q -0.610114,0.28472 -1.694762,0.28472 z" />
      <path
         id="path979"
         style="font-style:normal;font-variant:normal;font-weight:bold;font-stretch:normal;font-family:Sarabun;-inkscape-font-specification:'Sarabun Bold';fill:#ffffff;stroke-width:0.338953"
         d="m 94.188591,26.962764 q -0.664347,0 -1.193112,-0.271162 -0.528766,-0.28472 -0.827045,-0.772812 -0.298278,-0.50165 -0.298278,-1.111764 0,-1.043974 0.827044,-1.599856 0.827044,-0.555882 2.35911,-0.555882 h 1.057531 v -0.28472 q 0,-0.542324 -0.325394,-0.827044 -0.311836,-0.298278 -0.894835,-0.298278 -0.610114,0 -1.165996,0.216929 -0.555882,0.21693 -0.908393,0.596557 l -0.759253,-1.0033 q 0.555882,-0.528766 1.315135,-0.827044 0.759254,-0.311836 1.57274,-0.311836 1.35581,0 2.128622,0.637231 0.772811,0.63723 0.772811,1.762553 v 3.091246 q 0,0.311837 0.04068,0.732138 0.05423,0.420301 0.122022,0.691463 H 96.47991 q -0.08135,-0.176256 -0.122023,-0.338953 -0.04067,-0.176255 -0.06779,-0.474533 h -0.02712 q -0.772812,0.949067 -2.07439,0.949067 z m 0.420301,-1.301578 q 0.650789,0 1.07109,-0.325394 0.433859,-0.338953 0.433859,-0.85416 v -0.677905 h -1.111764 q -0.691463,0 -1.07109,0.257603 -0.366068,0.257604 -0.366068,0.745696 0,0.406743 0.271162,0.637231 0.28472,0.216929 0.772811,0.216929 z" />
      <path
         id="path981"
         style="font-style:normal;font-variant:normal;font-weight:bold;font-stretch:normal;font-family:Sarabun;-inkscape-font-specification:'Sarabun Bold';fill:#ffffff;stroke-width:0.338953"
         d="m 102.97826,26.962764 q -0.59655,0 -1.15244,-0.28472 -0.54232,-0.28472 -0.85416,-0.745696 h -0.0271 q 0,0.650789 -0.0136,0.894835 h -1.626972 q 0.04068,-0.393185 0.04068,-1.803227 v -8.256883 h 1.721877 v 3.972523 h 0.0271 q 0.583,-0.827044 1.96592,-0.827044 1.30158,0 2.03372,0.908393 0.74569,0.908392 0.74569,2.508248 0,1.694763 -0.77281,2.670946 -0.75925,0.962625 -2.08795,0.962625 z m -0.33895,-1.328694 q 0.71858,0 1.09821,-0.582998 0.37962,-0.596557 0.37962,-1.694763 0,-1.043973 -0.37962,-1.599856 -0.37963,-0.555882 -1.09821,-0.555882 -0.6779,0 -1.12532,0.43386 -0.44742,0.433859 -0.44742,1.098206 v 1.396484 q 0,0.677905 0.4203,1.098206 0.43386,0.406743 1.15244,0.406743 z" />
      <path
         id="path983"
         style="font-style:normal;font-variant:normal;font-weight:bold;font-stretch:normal;font-family:Sarabun;-inkscape-font-specification:'Sarabun Bold';fill:#ffffff;stroke-width:0.338953"
         d="m 108.93832,26.962764 q -0.66435,0 -1.19312,-0.271162 -0.52876,-0.28472 -0.82704,-0.772812 -0.29828,-0.50165 -0.29828,-1.111764 0,-1.043974 0.82705,-1.599856 0.82704,-0.555882 2.35911,-0.555882 h 1.05753 v -0.28472 q 0,-0.542324 -0.3254,-0.827044 -0.31183,-0.298278 -0.89483,-0.298278 -0.61012,0 -1.166,0.216929 -0.55588,0.21693 -0.90839,0.596557 l -0.75926,-1.0033 q 0.55589,-0.528766 1.31514,-0.827044 0.75925,-0.311836 1.57274,-0.311836 1.35581,0 2.12862,0.637231 0.77281,0.63723 0.77281,1.762553 v 3.091246 q 0,0.311837 0.0407,0.732138 0.0542,0.420301 0.12202,0.691463 h -1.53206 q -0.0814,-0.176256 -0.12203,-0.338953 -0.0407,-0.176255 -0.0678,-0.474533 h -0.0271 q -0.77282,0.949067 -2.07439,0.949067 z m 0.4203,-1.301578 q 0.65079,0 1.07109,-0.325394 0.43386,-0.338953 0.43386,-0.85416 v -0.677905 h -1.11177 q -0.69146,0 -1.07109,0.257603 -0.36607,0.257604 -0.36607,0.745696 0,0.406743 0.27117,0.637231 0.28472,0.216929 0.77281,0.216929 z" />
      <path
         id="path985"
         style="font-style:normal;font-variant:normal;font-weight:bold;font-stretch:normal;font-family:Sarabun;-inkscape-font-specification:'Sarabun Bold';fill:#ffffff;stroke-width:0.338953"
         d="m 116.25016,26.962764 q -0.88128,0 -1.55918,-0.352511 -0.66435,-0.35251 -0.93551,-0.935509 l 1.07109,-0.745695 q 0.24404,0.338952 0.62367,0.542324 0.37963,0.203371 0.77281,0.203371 0.46098,0 0.75926,-0.230487 0.29828,-0.244046 0.29828,-0.596557 0,-0.28472 -0.21693,-0.447417 -0.21693,-0.176255 -0.92196,-0.447417 -1.23378,-0.474534 -1.73543,-0.962625 -0.50165,-0.488092 -0.50165,-1.206671 0,-0.840603 0.6779,-1.35581 0.69147,-0.515208 1.83035,-0.515208 0.75925,0 1.36936,0.298278 0.61012,0.28472 0.98975,0.827044 l -1.0033,0.745696 q -0.47454,-0.582999 -1.28802,-0.582999 -0.40675,0 -0.63723,0.149139 -0.21693,0.135581 -0.21693,0.406743 0,0.189814 0.0949,0.311837 0.0949,0.122023 0.36607,0.257604 0.27116,0.135581 0.86772,0.366068 0.79993,0.311837 1.23379,0.610115 0.44742,0.28472 0.62367,0.637231 0.18981,0.338952 0.18981,0.827044 0,0.650788 -0.35251,1.152438 -0.33895,0.488092 -0.96262,0.772812 -0.62367,0.271162 -1.43716,0.271162 z" />
      <path
         id="path987"
         style="font-style:normal;font-variant:normal;font-weight:bold;font-stretch:normal;font-family:Sarabun;-inkscape-font-specification:'Sarabun Bold';fill:#ffffff;stroke-width:0.338953"
         d="m 126.56702,24.074889 h -4.71821 q 0.21693,1.437158 1.66764,1.437158 0.59656,0 1.03042,-0.203371 0.44742,-0.203372 0.86772,-0.677905 l 0.93551,0.894834 q -0.39319,0.650789 -1.19312,1.043974 -0.78637,0.393185 -1.73543,0.393185 -1.5863,0 -2.46758,-0.921951 -0.88127,-0.935509 -0.88127,-2.576039 0,-1.654088 0.88127,-2.603155 0.89484,-0.949067 2.45402,-0.949067 1.49139,0 2.31843,0.935509 0.8406,0.935509 0.8406,2.603155 z m -1.69476,-1.260904 q 0,-0.691463 -0.40674,-1.084648 -0.39319,-0.406743 -1.09821,-0.406743 -0.63723,0 -1.03041,0.420301 -0.39319,0.406743 -0.50165,1.152439 h 3.03701 z" />
    </g>
    <g
       style="font-style:normal;font-weight:normal;font-size:8.96976px;line-height:1;font-family:sans-serif;fill:#ffffff;fill-opacity:1;stroke:none;stroke-width:0.224245"
       id="text1295"
       aria-label="Orokonui Ecosanctuary">
      <path
         id="path990"
         style="font-style:normal;font-variant:normal;font-weight:normal;font-stretch:normal;font-family:Sarabun;-inkscape-font-specification:Sarabun;fill:#ffffff;stroke-width:0.224245"
         d="m 40.764019,15.236652 q -0.816248,0 -1.417222,-0.3857 -0.600974,-0.394669 -0.923885,-1.12122 -0.322911,-0.73552 -0.322911,-1.722193 0,-0.986674 0.322911,-1.713225 0.322911,-0.7355199 0.923885,-1.1212196 0.600974,-0.3946694 1.417222,-0.3946694 0.816248,0 1.408253,0.3946694 0.600973,0.3856997 0.923885,1.1212196 0.322911,0.726551 0.322911,1.713225 0,0.986673 -0.322911,1.722193 -0.322912,0.726551 -0.923885,1.12122 -0.592005,0.3857 -1.408253,0.3857 z m 0,-0.663762 q 0.556125,0 0.968734,-0.313942 0.421579,-0.313941 0.636853,-0.888006 0.224244,-0.583034 0.224244,-1.363403 0,-0.78037 -0.224244,-1.354434 -0.215274,-0.583035 -0.636853,-0.8969762 -0.412609,-0.3139416 -0.968734,-0.3139416 -0.565095,0 -0.977704,0.3139416 -0.412609,0.3139412 -0.636853,0.8969762 -0.224244,0.574064 -0.224244,1.354434 0,0.780369 0.224244,1.363403 0.224244,0.574065 0.636853,0.888006 0.412609,0.313942 0.977704,0.313942 z" />
      <path
         id="path992"
         style="font-style:normal;font-variant:normal;font-weight:normal;font-stretch:normal;font-family:Sarabun;-inkscape-font-specification:Sarabun;fill:#ffffff;stroke-width:0.224245"
         d="m 44.317446,11.756385 q 0,-0.762429 -0.02691,-1.09431 h 0.708611 q 0.03588,0.35879 0.03588,0.789338 v 0.0897 h 0.02691 q 0.170425,-0.466427 0.547155,-0.717581 0.37673,-0.251153 0.888006,-0.251153 0.143516,0 0.260123,0.02691 v 0.627883 q -0.116607,-0.02691 -0.313941,-0.02691 -0.37673,0 -0.690672,0.233214 -0.313941,0.224244 -0.493337,0.618913 -0.179395,0.39467 -0.179395,0.861097 v 2.233471 h -0.762429 z" />
      <path
         id="path994"
         style="font-style:normal;font-variant:normal;font-weight:normal;font-stretch:normal;font-family:Sarabun;-inkscape-font-specification:Sarabun;fill:#ffffff;stroke-width:0.224245"
         d="m 49.258382,15.236652 q -0.663762,0 -1.157099,-0.278062 -0.484367,-0.287033 -0.75346,-0.816249 -0.260123,-0.529215 -0.260123,-1.237826 0,-0.708611 0.260123,-1.237827 0.269093,-0.529216 0.75346,-0.807279 0.493337,-0.287032 1.157099,-0.287032 1.004613,0 1.587647,0.627883 0.592005,0.627883 0.592005,1.704255 0,1.076371 -0.592005,1.704254 -0.583034,0.627883 -1.587647,0.627883 z m 0,-0.583034 q 0.663762,0 1.040492,-0.466428 0.37673,-0.466427 0.37673,-1.282675 0,-0.816249 -0.37673,-1.282676 -0.37673,-0.466428 -1.040492,-0.466428 -0.654793,0 -1.031523,0.466428 -0.376729,0.466427 -0.376729,1.282676 0,0.816248 0.376729,1.282675 0.37673,0.466428 1.031523,0.466428 z" />
      <path
         id="path996"
         style="font-style:normal;font-variant:normal;font-weight:normal;font-stretch:normal;font-family:Sarabun;-inkscape-font-specification:Sarabun;fill:#ffffff;stroke-width:0.224245"
         d="m 55.202109,15.146955 -1.480011,-2.25141 -0.654792,0.654792 v 1.596618 h -0.76243 V 8.4913927 h 0.76243 v 4.1440293 l 1.964377,-1.973347 h 0.914916 l -1.713224,1.722193 1.8388,2.762687 z" />
      <path
         id="path998"
         style="font-style:normal;font-variant:normal;font-weight:normal;font-stretch:normal;font-family:Sarabun;-inkscape-font-specification:Sarabun;fill:#ffffff;stroke-width:0.224245"
         d="m 58.438372,15.236652 q -0.663763,0 -1.157099,-0.278062 -0.484367,-0.287033 -0.75346,-0.816249 -0.260123,-0.529215 -0.260123,-1.237826 0,-0.708611 0.260123,-1.237827 0.269093,-0.529216 0.75346,-0.807279 0.493336,-0.287032 1.157099,-0.287032 1.004613,0 1.587647,0.627883 0.592004,0.627883 0.592004,1.704255 0,1.076371 -0.592004,1.704254 -0.583034,0.627883 -1.587647,0.627883 z m 0,-0.583034 q 0.663762,0 1.040492,-0.466428 0.37673,-0.466427 0.37673,-1.282675 0,-0.816249 -0.37673,-1.282676 -0.37673,-0.466428 -1.040492,-0.466428 -0.654793,0 -1.031523,0.466428 -0.37673,0.466427 -0.37673,1.282676 0,0.816248 0.37673,1.282675 0.37673,0.466428 1.031523,0.466428 z" />
      <path
         id="path1000"
         style="font-style:normal;font-variant:normal;font-weight:normal;font-stretch:normal;font-family:Sarabun;-inkscape-font-specification:Sarabun;fill:#ffffff;stroke-width:0.224245"
         d="m 61.475895,11.792264 q 0,-0.852127 -0.03588,-1.130189 h 0.708611 q 0.03588,0.296002 0.03588,0.798308 h 0.02691 q 0.197334,-0.412609 0.600974,-0.645823 0.412609,-0.242183 0.914915,-0.242183 0.789339,0 1.184008,0.511276 0.39467,0.511277 0.39467,1.524859 v 2.538443 h -0.76243 v -2.547412 q 0,-0.717581 -0.242183,-1.067402 -0.242184,-0.34982 -0.735521,-0.34982 -0.376729,0 -0.681701,0.197334 -0.304972,0.188365 -0.475398,0.538186 -0.170425,0.340851 -0.170425,0.771399 v 2.457715 h -0.76243 z" />
      <path
         id="path1002"
         style="font-style:normal;font-variant:normal;font-weight:normal;font-stretch:normal;font-family:Sarabun;-inkscape-font-specification:Sarabun;fill:#ffffff;stroke-width:0.224245"
         d="m 67.97743,15.236652 q -0.771399,0 -1.175038,-0.502306 -0.39467,-0.502307 -0.39467,-1.480011 v -2.59226 h 0.76243 v 2.60123 q 0,1.363403 0.968734,1.363403 0.37673,0 0.681702,-0.188364 0.304972,-0.197335 0.475397,-0.538186 0.170426,-0.349821 0.170426,-0.780369 v -2.457714 h 0.762429 v 3.534085 q 0,0.448488 0.08073,0.950795 h -0.699641 q -0.08073,-0.39467 -0.0897,-0.798309 h -0.02691 q -0.197335,0.412609 -0.609944,0.654792 -0.403639,0.233214 -0.905946,0.233214 z" />
      <path
         id="path1004"
         style="font-style:normal;font-variant:normal;font-weight:normal;font-stretch:normal;font-family:Sarabun;-inkscape-font-specification:Sarabun;fill:#ffffff;stroke-width:0.224245"
         d="m 71.912773,9.8817055 q -0.251153,0 -0.394669,-0.1345464 -0.143517,-0.1345464 -0.143517,-0.3677602 0,-0.2332138 0.143517,-0.3677602 0.143516,-0.1435161 0.394669,-0.1435161 0.251153,0 0.39467,0.1435161 0.152485,0.1345464 0.152485,0.3677602 0,0.2332138 -0.152485,0.3677602 -0.143517,0.1345464 -0.39467,0.1345464 z m -0.37673,0.7803695 h 0.76243 v 4.48488 h -0.76243 z" />
      <path
         id="path1006"
         style="font-style:normal;font-variant:normal;font-weight:normal;font-stretch:normal;font-family:Sarabun;-inkscape-font-specification:Sarabun;fill:#ffffff;stroke-width:0.224245"
         d="m 75.90726,8.8681226 h 3.7673 v 0.6817017 h -2.942082 v 1.9554077 h 2.62814 v 0.681702 h -2.62814 v 2.278319 h 2.942082 v 0.681702 h -3.7673 z" />
      <path
         id="path1008"
         style="font-style:normal;font-variant:normal;font-weight:normal;font-stretch:normal;font-family:Sarabun;-inkscape-font-specification:Sarabun;fill:#ffffff;stroke-width:0.224245"
         d="m 82.542499,15.236652 q -0.995643,0 -1.551769,-0.609944 -0.547155,-0.618913 -0.547155,-1.722193 0,-1.103281 0.547155,-1.713225 0.556126,-0.618913 1.551769,-0.618913 0.565095,0 0.995643,0.224244 0.439518,0.215274 0.690672,0.627883 l -0.457458,0.412609 q -0.197335,-0.304972 -0.520246,-0.475397 -0.313942,-0.179395 -0.681702,-0.179395 -0.636853,0 -1.004613,0.457457 -0.35879,0.448488 -0.35879,1.264737 0,0.807278 0.35879,1.264736 0.36776,0.457457 1.004613,0.457457 0.36776,0 0.681702,-0.170425 0.322911,-0.179395 0.520246,-0.484367 l 0.457458,0.412609 q -0.251154,0.412609 -0.690672,0.636853 -0.430548,0.215274 -0.995643,0.215274 z" />
      <path
         id="path1010"
         style="font-style:normal;font-variant:normal;font-weight:normal;font-stretch:normal;font-family:Sarabun;-inkscape-font-specification:Sarabun;fill:#ffffff;stroke-width:0.224245"
         d="m 86.871809,15.236652 q -0.663762,0 -1.157099,-0.278062 -0.484367,-0.287033 -0.75346,-0.816249 -0.260123,-0.529215 -0.260123,-1.237826 0,-0.708611 0.260123,-1.237827 0.269093,-0.529216 0.75346,-0.807279 0.493337,-0.287032 1.157099,-0.287032 1.004613,0 1.587648,0.627883 0.592004,0.627883 0.592004,1.704255 0,1.076371 -0.592004,1.704254 -0.583035,0.627883 -1.587648,0.627883 z m 0,-0.583034 q 0.663762,0 1.040492,-0.466428 0.37673,-0.466427 0.37673,-1.282675 0,-0.816249 -0.37673,-1.282676 -0.37673,-0.466428 -1.040492,-0.466428 -0.654792,0 -1.031522,0.466428 -0.37673,0.466427 -0.37673,1.282676 0,0.816248 0.37673,1.282675 0.37673,0.466428 1.031522,0.466428 z" />
      <path
         id="path1012"
         style="font-style:normal;font-variant:normal;font-weight:normal;font-stretch:normal;font-family:Sarabun;-inkscape-font-specification:Sarabun;fill:#ffffff;stroke-width:0.224245"
         d="m 91.165099,15.236652 q -0.502306,0 -0.914915,-0.206304 -0.40364,-0.206305 -0.574065,-0.547156 l 0.493337,-0.340851 q 0.152486,0.242184 0.421579,0.37673 0.269092,0.134547 0.583034,0.134547 0.37673,0 0.618913,-0.215274 0.251154,-0.224244 0.251154,-0.556126 0,-0.269092 -0.197335,-0.448488 -0.197335,-0.179395 -0.699641,-0.36776 -0.76243,-0.278062 -1.076372,-0.583034 -0.304971,-0.304972 -0.304971,-0.75346 0,-0.520246 0.412609,-0.834188 0.412609,-0.322911 1.09431,-0.322911 0.439519,0 0.798309,0.188365 0.36776,0.188365 0.565095,0.520246 l -0.466428,0.340851 q -0.313941,-0.466428 -0.896976,-0.466428 -0.331881,0 -0.547155,0.152486 -0.206305,0.152486 -0.206305,0.39467 0,0.242183 0.215275,0.412609 0.215274,0.161455 0.798308,0.385699 0.690672,0.260123 0.977704,0.574065 0.287032,0.304972 0.287032,0.780369 0,0.627883 -0.448488,1.004613 -0.448488,0.37673 -1.184008,0.37673 z" />
      <path
         id="path1014"
         style="font-style:normal;font-variant:normal;font-weight:normal;font-stretch:normal;font-family:Sarabun;-inkscape-font-specification:Sarabun;fill:#ffffff;stroke-width:0.224245"
         d="m 94.968417,15.236652 q -0.663762,0 -1.085341,-0.3857 -0.421579,-0.385699 -0.421579,-0.995643 0,-0.672732 0.502307,-1.040492 0.511276,-0.36776 1.444131,-0.36776 h 0.923885 v -0.233214 q 0,-0.502307 -0.269092,-0.76243 -0.260123,-0.269092 -0.76243,-0.269092 -0.403639,0 -0.74449,0.170425 -0.331881,0.161456 -0.556125,0.475397 l -0.3857,-0.466427 q 0.304972,-0.3857 0.74449,-0.583035 0.439519,-0.206304 0.977704,-0.206304 0.843158,0 1.300615,0.412609 0.457458,0.412609 0.457458,1.184008 v 2.107894 q 0,0.34982 0.107637,0.870067 h -0.663762 q -0.08073,-0.206305 -0.116607,-0.627884 h -0.01794 q -0.251154,0.349821 -0.618914,0.538186 -0.36776,0.179395 -0.816248,0.179395 z m 0.116607,-0.600974 q 0.340851,0 0.627883,-0.125576 0.287032,-0.134547 0.448488,-0.358791 0.170425,-0.224244 0.170425,-0.493337 v -0.663762 h -0.950794 q -0.565095,0 -0.870067,0.224244 -0.304972,0.224244 -0.304972,0.636853 0,0.358791 0.233214,0.574065 0.242184,0.206304 0.645823,0.206304 z" />
      <path
         id="path1016"
         style="font-style:normal;font-variant:normal;font-weight:normal;font-stretch:normal;font-family:Sarabun;-inkscape-font-specification:Sarabun;fill:#ffffff;stroke-width:0.224245"
         d="m 98.248406,11.792264 q 0,-0.852127 -0.03588,-1.130189 h 0.708611 q 0.03588,0.296002 0.03588,0.798308 h 0.02691 q 0.197335,-0.412609 0.600974,-0.645823 0.412609,-0.242183 0.91492,-0.242183 0.78933,0 1.184,0.511276 0.39467,0.511277 0.39467,1.524859 v 2.538443 h -0.76243 v -2.547412 q 0,-0.717581 -0.24218,-1.067402 -0.24218,-0.34982 -0.73552,-0.34982 -0.37673,0 -0.681702,0.197334 -0.304972,0.188365 -0.475397,0.538186 -0.170425,0.340851 -0.170425,0.771399 v 2.457715 h -0.76243 z" />
      <path
         id="path1018"
         style="font-style:normal;font-variant:normal;font-weight:normal;font-stretch:normal;font-family:Sarabun;-inkscape-font-specification:Sarabun;fill:#ffffff;stroke-width:0.224245"
         d="m 105.03698,15.236652 q -0.99565,0 -1.55177,-0.609944 -0.54716,-0.618913 -0.54716,-1.722193 0,-1.103281 0.54716,-1.713225 0.55612,-0.618913 1.55177,-0.618913 0.56509,0 0.99564,0.224244 0.43952,0.215274 0.69067,0.627883 l -0.45746,0.412609 q -0.19733,-0.304972 -0.52024,-0.475397 -0.31395,-0.179395 -0.68171,-0.179395 -0.63685,0 -1.00461,0.457457 -0.35879,0.448488 -0.35879,1.264737 0,0.807278 0.35879,1.264736 0.36776,0.457457 1.00461,0.457457 0.36776,0 0.68171,-0.170425 0.32291,-0.179395 0.52024,-0.484367 l 0.45746,0.412609 q -0.25115,0.412609 -0.69067,0.636853 -0.43055,0.215274 -0.99564,0.215274 z" />
      <path
         id="path1020"
         style="font-style:normal;font-variant:normal;font-weight:normal;font-stretch:normal;font-family:Sarabun;-inkscape-font-specification:Sarabun;fill:#ffffff;stroke-width:0.224245"
         d="m 109.04337,15.236652 q -0.592,0 -0.93285,-0.37673 -0.34086,-0.385699 -0.34086,-1.058431 v -2.547412 h -0.80727 v -0.592004 h 0.80727 V 9.4690965 l 0.72655,-0.224244 h 0.0359 v 1.4172225 h 1.27371 v 0.592004 h -1.27371 v 2.475653 q 0,0.457458 0.17043,0.681702 0.17042,0.215274 0.52922,0.215274 0.38569,0 0.62788,-0.09867 l 0.0538,0.565095 q -0.29601,0.143516 -0.87007,0.143516 z" />
      <path
         id="path1022"
         style="font-style:normal;font-variant:normal;font-weight:normal;font-stretch:normal;font-family:Sarabun;-inkscape-font-specification:Sarabun;fill:#ffffff;stroke-width:0.224245"
         d="m 112.37073,15.236652 q -0.7714,0 -1.17504,-0.502306 -0.39467,-0.502307 -0.39467,-1.480011 v -2.59226 h 0.76243 v 2.60123 q 0,1.363403 0.96874,1.363403 0.37673,0 0.6817,-0.188364 0.30497,-0.197335 0.4754,-0.538186 0.17042,-0.349821 0.17042,-0.780369 v -2.457714 h 0.76243 v 3.534085 q 0,0.448488 0.0807,0.950795 h -0.69964 q -0.0807,-0.39467 -0.0897,-0.798309 h -0.0269 q -0.19733,0.412609 -0.60994,0.654792 -0.40364,0.233214 -0.90595,0.233214 z" />
      <path
         id="path1024"
         style="font-style:normal;font-variant:normal;font-weight:normal;font-stretch:normal;font-family:Sarabun;-inkscape-font-specification:Sarabun;fill:#ffffff;stroke-width:0.224245"
         d="m 117.07748,15.236652 q -0.66376,0 -1.08534,-0.3857 -0.42158,-0.385699 -0.42158,-0.995643 0,-0.672732 0.50231,-1.040492 0.51127,-0.36776 1.44413,-0.36776 h 0.92388 v -0.233214 q 0,-0.502307 -0.26909,-0.76243 -0.26012,-0.269092 -0.76243,-0.269092 -0.40364,0 -0.74449,0.170425 -0.33188,0.161456 -0.55612,0.475397 l -0.3857,-0.466427 q 0.30497,-0.3857 0.74449,-0.583035 0.43951,-0.206304 0.9777,-0.206304 0.84316,0 1.30061,0.412609 0.45746,0.412609 0.45746,1.184008 v 2.107894 q 0,0.34982 0.10764,0.870067 h -0.66376 q -0.0807,-0.206305 -0.11661,-0.627884 h -0.0179 q -0.25115,0.349821 -0.61891,0.538186 -0.36776,0.179395 -0.81625,0.179395 z m 0.11661,-0.600974 q 0.34085,0 0.62788,-0.125576 0.28703,-0.134547 0.44849,-0.358791 0.17042,-0.224244 0.17042,-0.493337 v -0.663762 h -0.95079 q -0.5651,0 -0.87007,0.224244 -0.30497,0.224244 -0.30497,0.636853 0,0.358791 0.23321,0.574065 0.24219,0.206304 0.64583,0.206304 z" />
      <path
         id="path1026"
         style="font-style:normal;font-variant:normal;font-weight:normal;font-stretch:normal;font-family:Sarabun;-inkscape-font-specification:Sarabun;fill:#ffffff;stroke-width:0.224245"
         d="m 120.42026,11.756385 q 0,-0.762429 -0.0269,-1.09431 h 0.70861 q 0.0359,0.35879 0.0359,0.789338 v 0.0897 h 0.0269 q 0.17042,-0.466427 0.54715,-0.717581 0.37673,-0.251153 0.88801,-0.251153 0.14351,0 0.26012,0.02691 v 0.627883 q -0.11661,-0.02691 -0.31394,-0.02691 -0.37673,0 -0.69067,0.233214 -0.31394,0.224244 -0.49334,0.618913 -0.17939,0.39467 -0.17939,0.861097 v 2.233471 h -0.76243 z" />
      <path
         id="path1028"
         style="font-style:normal;font-variant:normal;font-weight:normal;font-stretch:normal;font-family:Sarabun;-inkscape-font-specification:Sarabun;fill:#ffffff;stroke-width:0.224245"
         d="m 127.00055,10.662075 -1.62352,4.565607 q -0.61892,1.731164 -1.91056,1.731164 -0.23321,0 -0.50231,-0.06279 v -0.583035 q 0.16146,0.05382 0.39467,0.05382 0.45746,0 0.78037,-0.331881 0.32291,-0.331881 0.61891,-1.12122 l -1.66837,-4.251666 h 0.81625 l 1.20194,3.435418 1.06741,-3.435418 z" />
    </g>
  </g>
</svg>
