<?xml version="1.0" encoding="UTF-8" standalone="no"?>
<svg
   xmlns:dc="http://purl.org/dc/elements/1.1/"
   xmlns:cc="http://creativecommons.org/ns#"
   xmlns:rdf="http://www.w3.org/1999/02/22-rdf-syntax-ns#"
   xmlns:svg="http://www.w3.org/2000/svg"
   xmlns="http://www.w3.org/2000/svg"
   width="68.831589mm"
   height="68.831589mm"
   viewBox="0 0 68.831588 68.831589"
   version="1.1"
   id="svg8">
  <defs
     id="defs2" />
  <metadata
     id="metadata5">
    <rdf:RDF>
      <cc:Work
         rdf:about="">
        <dc:format>image/svg+xml</dc:format>
        <dc:type
           rdf:resource="http://purl.org/dc/dcmitype/StillImage" />
        <dc:title></dc:title>
      </cc:Work>
    </rdf:RDF>
  </metadata>
  <circle
     style="opacity:1;fill:#ffffff;stroke:none;stroke-width:6.18894;stroke-miterlimit:4;stroke-dasharray:none;stroke-opacity:1;stop-opacity:1"
     id="circle1575"
     cx="34.415794"
     cy="34.415791"
     r="31.321325" />
  <path
     d="m 34.595548,65.73644 h 0.04917 c 0.0709,-4.3e-4 0.14179,-0.001 0.212681,-0.002 0.07103,-0.001 0.142059,-0.002 0.213082,-0.004 0.0709,-0.001 0.141794,-0.003 0.212682,-0.005 0.07103,-0.002 0.142061,-0.004 0.21308,-0.007 0.0709,-0.002 0.141799,-0.005 0.212684,-0.008 0.07091,-0.003 0.141799,-0.006 0.212681,-0.01 0.07091,-0.003 0.1418,-0.007 0.212681,-0.0108 0.07091,-0.004 0.141802,-0.008 0.212682,-0.0124 0.07078,-0.004 0.141537,-0.009 0.212282,-0.014 0.07078,-0.005 0.141539,-0.01 0.212282,-0.0152 0.07078,-0.005 0.141541,-0.011 0.212282,-0.0168 0.07078,-0.006 0.141543,-0.012 0.212283,-0.0184 0.07065,-0.006 0.141278,-0.0128 0.211883,-0.0196 0.07065,-0.007 0.141278,-0.0136 0.211881,-0.0208 0.07065,-0.007 0.141281,-0.015 0.211883,-0.0228 0.07052,-0.008 0.141016,-0.0155 0.211483,-0.0236 0.07052,-0.008 0.141018,-0.0168 0.211483,-0.0256 0.07039,-0.009 0.140753,-0.0176 0.211083,-0.0268 0.07039,-0.009 0.140754,-0.0187 0.211083,-0.0284 0.07026,-0.01 0.140488,-0.0195 0.210682,-0.0296 0.07026,-0.0102 0.140491,-0.0206 0.210683,-0.0312 0.07013,-0.0106 0.140225,-0.0214 0.210282,-0.0324 0.07013,-0.0111 0.140229,-0.0224 0.210285,-0.034 0.07,-0.0116 0.139963,-0.0235 0.209883,-0.0356 0.07,-0.012 0.139964,-0.0243 0.209883,-0.0368 0.06987,-0.0126 0.1397,-0.0254 0.209484,-0.0384 0.06974,-0.013 0.139434,-0.0262 0.209084,-0.0396 0.06974,-0.0135 0.139437,-0.0272 0.209085,-0.0412 0.06947,-0.0139 0.138903,-0.028 0.208282,-0.0424 0.06961,-0.0144 0.139173,-0.029 0.208684,-0.0439 0.06935,-0.0148 0.138642,-0.0299 0.207886,-0.0452 0.06935,-0.0154 0.138643,-0.031 0.207884,-0.0468 0.06908,-0.0159 0.138112,-0.032 0.207085,-0.0484 0.06908,-0.0163 0.138113,-0.0328 0.207085,-0.0496 0.06895,-0.0167 0.137848,-0.0336 0.206686,-0.0507 0.06895,-0.0172 0.137849,-0.0347 0.206684,-0.0524 0.06869,-0.0178 0.137319,-0.0358 0.205886,-0.054 0.06856,-0.0181 0.137054,-0.0365 0.205487,-0.0551 0.06856,-0.0187 0.137056,-0.0376 0.205487,-0.0568 0.06829,-0.0191 0.136523,-0.0384 0.204686,-0.0579 0.0683,-0.0195 0.136525,-0.0392 0.204686,-0.0592 0.06803,-0.02 0.135993,-0.0403 0.203886,-0.0608 0.0679,-0.0205 0.135729,-0.0413 0.203487,-0.0623 0.0679,-0.0208 0.13573,-0.0418 0.203487,-0.0631 0.06764,-0.0215 0.135198,-0.0432 0.202686,-0.0651 0.06751,-0.0219 0.134935,-0.044 0.20229,-0.0664 0.06737,-0.0223 0.134667,-0.0448 0.201886,-0.0675 0.06724,-0.0228 0.134405,-0.0459 0.201489,-0.0692 0.06698,-0.0232 0.133873,-0.0467 0.200689,-0.0704 0.06698,-0.0236 0.133874,-0.0475 0.200689,-0.0716 0.06671,-0.0242 0.133342,-0.0486 0.199888,-0.0732 0.06658,-0.0245 0.133078,-0.0493 0.19949,-0.0743 0.06645,-0.0251 0.132812,-0.0504 0.199088,-0.076 0.06618,-0.0255 0.132281,-0.0512 0.19829,-0.0771 0.06605,-0.026 0.132016,-0.0523 0.19789,-0.0788 0.06592,-0.0264 0.131751,-0.053 0.19749,-0.0799 0.06565,-0.0268 0.131219,-0.0539 0.196691,-0.0812 0.06552,-0.0272 0.130955,-0.0547 0.196292,-0.0824 0.06526,-0.0278 0.130422,-0.0557 0.195491,-0.0839 0.06526,-0.0282 0.130424,-0.0566 0.195491,-0.0852 0.06486,-0.0287 0.129627,-0.0576 0.194293,-0.0867 0.06473,-0.0289 0.129361,-0.0581 0.193893,-0.0875 0.0646,-0.0295 0.129096,-0.0592 0.193492,-0.0892 0.06433,-0.03 0.128565,-0.0602 0.192693,-0.0907 0.06407,-0.0303 0.128033,-0.0609 0.191894,-0.0916 0.06394,-0.0309 0.127768,-0.0619 0.191493,-0.0932 0.0638,-0.0312 0.127504,-0.0626 0.191095,-0.0943 0.06354,-0.0318 0.12697,-0.0637 0.190292,-0.0959 0.06327,-0.032 0.126441,-0.0643 0.189497,-0.0968 0.06301,-0.0326 0.125907,-0.0653 0.188694,-0.0983 0.06288,-0.0329 0.125643,-0.0661 0.188295,-0.0995 0.06261,-0.0335 0.125113,-0.0672 0.187497,-0.10114 0.06235,-0.0338 0.12458,-0.0677 0.186697,-0.10194 0.06222,-0.0342 0.124314,-0.0686 0.186295,-0.10315 0.06195,-0.0347 0.123784,-0.0696 0.185497,-0.10474 0.06169,-0.0351 0.123253,-0.0704 0.184699,-0.10594 0.06142,-0.0355 0.122719,-0.0712 0.183896,-0.10715 0.06116,-0.0359 0.122189,-0.072 0.1831,-0.10833 0.06102,-0.0364 0.121923,-0.0731 0.182697,-0.10994 0.06076,-0.0367 0.121393,-0.0736 0.181901,-0.11074 0.06036,-0.0371 0.120592,-0.0744 0.180698,-0.11193 0.06023,-0.0377 0.120329,-0.0755 0.1803,-0.11355 0.05996,-0.0379 0.119797,-0.076 0.179501,-0.11433 0.0597,-0.0384 0.119266,-0.0771 0.178701,-0.11593 0.05943,-0.0388 0.118734,-0.0779 0.177901,-0.11714 0.05917,-0.0391 0.1182,-0.0784 0.1771,-0.11794 0.0589,-0.0396 0.117671,-0.0795 0.176303,-0.11953 0.05864,-0.04 0.117138,-0.0803 0.175502,-0.12073 0.05837,-0.0403 0.116607,-0.0808 0.174704,-0.12153 0.05811,-0.0409 0.116076,-0.0819 0.173904,-0.12314 0.05771,-0.0411 0.115276,-0.0824 0.172704,-0.12393 0.05758,-0.0416 0.115012,-0.0835 0.172304,-0.12553 0.05718,-0.0419 0.114212,-0.084 0.171104,-0.12632 0.05705,-0.0423 0.113949,-0.0848 0.170706,-0.12754 0.05665,-0.0428 0.11315,-0.0859 0.169505,-0.12913 0.05638,-0.0431 0.112619,-0.0864 0.168707,-0.12993 0.05598,-0.0435 0.11182,-0.0872 0.167507,-0.13112 0.05585,-0.0438 0.111555,-0.0878 0.167108,-0.13192 0.05545,-0.0443 0.110755,-0.0888 0.165906,-0.13354 0.05519,-0.0446 0.110225,-0.0894 0.165109,-0.13432 0.05479,-0.0451 0.109427,-0.0904 0.16391,-0.13592 0.05466,-0.0454 0.109161,-0.091 0.163508,-0.13673 0.05413,-0.0457 0.108096,-0.0915 0.161911,-0.13752 0.05399,-0.0462 0.107831,-0.0926 0.16151,-0.13912 0.0536,-0.0465 0.107032,-0.0931 0.16031,-0.13993 0.05333,-0.0469 0.106501,-0.0939 0.159512,-0.14112 0.05307,-0.0473 0.10597,-0.0947 0.158712,-0.14232 0.05267,-0.0475 0.10517,-0.0952 0.157512,-0.14312 0.05227,-0.0479 0.104374,-0.096 0.156315,-0.14432 0.052,-0.0483 0.10384,-0.0968 0.155513,-0.14552 0.05174,-0.0486 0.103309,-0.0974 0.154714,-0.14632 0.05134,-0.049 0.10251,-0.0982 0.153514,-0.14751 0.05094,-0.0494 0.101712,-0.099 0.152315,-0.14872 0.05068,-0.0497 0.101182,-0.0995 0.151518,-0.14952 0.05041,-0.0499 0.100647,-0.10004 0.150715,-0.15031 0.05001,-0.0505 0.09985,-0.10111 0.149517,-0.15192 0.04961,-0.0506 0.09905,-0.10138 0.148318,-0.15232 0.04935,-0.0511 0.09852,-0.10244 0.147517,-0.15391 0.04895,-0.0513 0.09772,-0.10271 0.14632,-0.15431 0.04868,-0.0518 0.09719,-0.10378 0.14552,-0.15592 0.04815,-0.0519 0.09612,-0.10404 0.143919,-0.15631 0.04802,-0.0525 0.09586,-0.10511 0.14352,-0.15791 0.04749,-0.0526 0.09479,-0.10539 0.141921,-0.15832 0.04722,-0.053 0.09426,-0.10618 0.141123,-0.15951 0.04682,-0.0534 0.09346,-0.10698 0.139921,-0.16071 0.04642,-0.0536 0.09266,-0.10725 0.138722,-0.16111 0.04616,-0.054 0.09213,-0.10805 0.137925,-0.16231 0.04563,-0.0543 0.09107,-0.10885 0.136324,-0.16351 0.04536,-0.0546 0.09054,-0.10939 0.135526,-0.16431 0.0451,-0.0549 0.09,-0.10992 0.134724,-0.16511 0.04456,-0.0551 0.08894,-0.11046 0.133126,-0.16591 0.0443,-0.0555 0.08841,-0.11125 0.132326,-0.1671 0.04377,-0.0557 0.08734,-0.11153 0.130729,-0.16751 0.0435,-0.0562 0.08681,-0.11259 0.129927,-0.1691 0.0431,-0.0564 0.08601,-0.11286 0.128729,-0.16951 0.0427,-0.0566 0.08521,-0.1134 0.127528,-0.17031 0.0423,-0.057 0.08441,-0.11419 0.12633,-0.1715 0.04204,-0.0572 0.08388,-0.11446 0.12553,-0.1719 0.04151,-0.0576 0.08282,-0.11527 0.123931,-0.17311 0.04111,-0.0578 0.08202,-0.11579 0.122733,-0.1739 0.04084,-0.0581 0.08149,-0.11634 0.121933,-0.17471 0.04031,-0.0584 0.08042,-0.11686 0.120333,-0.1755 0.04004,-0.0586 0.07989,-0.1174 0.119533,-0.1763 0.03951,-0.059 0.07882,-0.1182 0.117934,-0.1775 0.03911,-0.0592 0.07802,-0.11847 0.116734,-0.1779 0.03885,-0.0594 0.07749,-0.119 0.115937,-0.1787 0.03831,-0.0597 0.07643,-0.11954 0.114336,-0.1795 0.03792,-0.06 0.07563,-0.12007 0.113138,-0.1803 0.03765,-0.0602 0.0751,-0.12061 0.112338,-0.1811 0.03712,-0.0605 0.07403,-0.12114 0.110738,-0.1819 0.03672,-0.0606 0.07323,-0.12141 0.109539,-0.1823 0.03188,-0.0537 0.06359,-0.10758 0.09515,-0.16151 C 58.982539,47.51435 56.80021,44.51432 54.134297,41.9571 51.893924,39.39504 49.573726,34.2879 48.254764,30.92643 43.884586,20.80912 31.288735,20.56625 26.367716,23.70923 c -2.030632,1.88034 -2.893587,3.67255 -5.271872,5.18832 -2.580581,2.41235 -2.486164,6.67509 0.05237,9.06656 1.251754,-6.54968 6.177447,-0.19955 7.186806,2.09245 2.991053,6.68992 4.885026,17.8218 6.020656,24.48759 0.06338,0.40096 0.159279,0.79463 0.239866,1.19175 z"
     style="opacity:1;fill:#aa4400;stroke:#a05a2c;stroke-width:0.0674022;stop-opacity:1"
     id="path869" />
  <circle
     r="31.321325"
     cy="34.415791"
     cx="34.415794"
     id="path863"
     style="opacity:1;fill:none;stroke:#651a1a;stroke-width:6.18894;stroke-miterlimit:4;stroke-dasharray:none;stroke-opacity:1;stop-opacity:1" />
</svg>
